<?xml version="1.0" encoding="UTF-8"?>
<svg id="Layer_1" xmlns="http://www.w3.org/2000/svg" version="1.1" viewBox="0 0 127.86 160.09">
  <!-- Generator: Adobe Illustrator 30.5.0, SVG Export Plug-In . SVG Version: 2.1.4 Build 167)  -->
  <defs>
    <style>
      .st0 {
        fill: #fff;
        opacity: .5;
      }

      .st1 {
        fill: #f8b85b;
      }
    </style>
  </defs>
  <g id="Laag_1-2">
    <path class="st1" d="M127.86,96.47C127.86,43.17,99.13,0,63.82,0S0,42.79,0,96.47c0,35.13,28.62,63.61,63.93,63.61s63.93-28.48,63.93-63.61h0Z"/>
  </g>
  <path class="st0" d="M67.44,4.46c.19.9-8.64,2.08-20.48,8.17-12.64,6.5-18.57,13.39-19.15,12.77-.7-.75,6.82-12.18,19.87-17.87,9.74-4.25,19.56-4,19.76-3.06Z"/>
  <path class="st0" d="M95.44,140.03c-.58-.71,6.72-5.81,14.45-16.66,8.25-11.58,10.36-20.41,11.16-20.13.97.35-.47,13.95-9.45,25-6.7,8.24-15.55,12.53-16.15,11.79Z"/>
  <path class="st0" d="M5.81,91.83c.73-.01-.44,11.21,4.14,25.4,4.7,14.6,12.32,22.54,11.85,22.87-.56.39-12.45-10.25-16.19-26.99-2.52-11.23-.49-21.28.21-21.29Z"/>
</svg>