<?xml version="1.0" encoding="UTF-8"?>
<svg xmlns="http://www.w3.org/2000/svg" version="1.1" viewBox="0 0 1125.72 2436.8">
  <!-- Generator: Adobe Illustrator 30.5.0, SVG Export Plug-In . SVG Version: 2.1.4 Build 167)  -->
  <defs>
    <style>
      .st0 {
        fill: #ede99f;
      }

      .st1 {
        fill: #c69c6d;
      }

      .st2 {
        fill: #a67c52;
      }

      .st3 {
        fill: #8c6239;
      }
    </style>
  </defs>
  <g id="Layer_5">
    <rect class="st0" x=".6" y=".28" width="117.87" height="2434.72"/>
  </g>
  <g id="Layer_3">
    <rect class="st3" x="161.37" y=".28" width="104.94" height="2034.38"/>
  </g>
  <g id="Layer_4">
    <rect class="st2" x="48.35" width="113.03" height="2206.23"/>
  </g>
  <g id="Layer_1">
    <path class="st1" d="M963.18,2436.07c11.75,1.24,23.74-.44,35.5-.45,14.51-.02,29.02.22,43.53.25,14.76.03,29.52-.25,44.28-.32,7.25-.03,14.5-.01,21.75.12,5.85.11,11.64.84,17.47,1.13-.21-189.2-.41-378.39-.62-567.59-286.26,1.27-572.53,2.54-858.79,3.81-88.73,107.79-177.45,215.59-266.18,323.38.11.43.18.89.18,1.4-.02,6.98-.15,13.96-.31,20.93.48.94.67,2.08.39,3.37-1.12,5.09,1.1,10.24,1.3,15.36.2,5.16-.76,10.32-.87,15.48-.02.83-.2,1.55-.5,2.17,0,.44,0,.88,0,1.32.44,1.27.4,2.72-.11,3.97-.01.2-.02.4-.03.6,155.21,48.32,255.47,81.13,338.29,108.42,99.52,32.79,156.65,53.13,199.71,66.94,24.75-.37,49.53-.1,74.3.21.28-2.24,1.87-4.3,4.78-4.3,25.26,0,50.51.04,75.77.1,88.53.2,177.06.41,265.59.41,2.46,0,3.97,1.46,4.55,3.26Z"/>
  </g>
  <g id="Layer_2">
    <rect class="st2" x=".6" y="2198.06" width="1125.02" height="237.94"/>
  </g>
</svg>