<?xml version="1.0" encoding="UTF-8"?>
<svg id="Layer_1" xmlns="http://www.w3.org/2000/svg" version="1.1" viewBox="0 0 195.83 245.09">
  <!-- Generator: Adobe Illustrator 30.5.0, SVG Export Plug-In . SVG Version: 2.1.4 Build 167)  -->
  <defs>
    <style>
      .st0 {
        fill: #58595b;
        opacity: .35;
      }

      .st1 {
        fill: #808285;
      }

      .st2 {
        fill: #939598;
      }
    </style>
  </defs>
  <rect class="st1" x="84.75" y="0" width="14.57" height="41.61"/>
  <g>
    <path class="st1" d="M30.34,245.09c-1-3.13-2-6.26-3-9.39C45.28,157.14,63.23,78.57,81.18,0h3.66c-18.17,81.7-36.33,163.39-54.5,245.09Z"/>
    <path class="st2" d="M52.48,245.09h-22.14C48.51,163.39,66.67,81.7,84.84,0v48.75c-10.79,65.45-21.58,130.89-32.37,196.34Z"/>
  </g>
  <g>
    <path class="st1" d="M153.72,245.09c1-3.13,2-6.26,3-9.39C138.77,157.14,120.83,78.57,102.88,0h-3.66c18.17,81.7,36.33,163.39,54.5,245.09Z"/>
    <path class="st2" d="M131.58,245.09h22.14C135.55,163.39,117.38,81.7,99.22,0v48.75c10.79,65.45,21.58,130.89,32.37,196.34Z"/>
  </g>
  <path class="st0" d="M150.12,206.82H33.93c-.32,1.41-.64,2.82-.97,4.23,39.32-.23,78.64-.46,117.97-.69-.27-1.18-.54-2.36-.81-3.54Z"/>
  <path class="st1" d="M195.83,190.06H0c4.14-6.16,8.29-12.31,12.43-18.47h171.91c3.83,6.16,7.66,12.31,11.49,18.47Z"/>
  <rect class="st2" y="190.06" width="195.83" height="16.76"/>
</svg>